<?xml version="1.0" encoding="UTF-8" standalone="no"?>
<!-- Created with Inkscape (http://www.inkscape.org/) -->

<svg
   xmlns:dc="http://purl.org/dc/elements/1.1/"
   xmlns:cc="http://creativecommons.org/ns#"
   xmlns:rdf="http://www.w3.org/1999/02/22-rdf-syntax-ns#"
   xmlns:svg="http://www.w3.org/2000/svg"
   xmlns="http://www.w3.org/2000/svg"
   xmlns:sodipodi="http://sodipodi.sourceforge.net/DTD/sodipodi-0.dtd"
   xmlns:inkscape="http://www.inkscape.org/namespaces/inkscape"
   width="26.9028mm"
   height="7.1437497mm"
   viewBox="0 0 26.9028 7.1437497"
   version="1.1"
   id="svg8"
   inkscape:version="0.92.5 (2060ec1f9f, 2020-04-08)"
   sodipodi:docname="logo-mini.svg">
  <defs
     id="defs2" />
  <sodipodi:namedview
     id="base"
     pagecolor="#ffffff"
     bordercolor="#666666"
     borderopacity="1.0"
     inkscape:pageopacity="0.0"
     inkscape:pageshadow="2"
     inkscape:zoom="1.4"
     inkscape:cx="237.15904"
     inkscape:cy="-111.15909"
     inkscape:document-units="mm"
     inkscape:current-layer="layer1"
     showgrid="false"
     fit-margin-top="0"
     fit-margin-left="0"
     fit-margin-right="0"
     fit-margin-bottom="0"
     inkscape:window-width="1920"
     inkscape:window-height="1016"
     inkscape:window-x="0"
     inkscape:window-y="27"
     inkscape:window-maximized="1" />
  <metadata
     id="metadata5">
    <rdf:RDF>
      <cc:Work
         rdf:about="">
        <dc:format>image/svg+xml</dc:format>
        <dc:type
           rdf:resource="http://purl.org/dc/dcmitype/StillImage" />
        <dc:title />
      </cc:Work>
    </rdf:RDF>
  </metadata>
  <g
     inkscape:label="Layer 1"
     inkscape:groupmode="layer"
     id="layer1"
     transform="translate(-37.797619,-147.7372)">
    <g
       aria-label="ADMX"
       style="font-style:normal;font-variant:normal;font-weight:normal;font-stretch:normal;font-size:10.58333302px;line-height:1.25;font-family:Gubbi;-inkscape-font-specification:Gubbi;letter-spacing:0px;word-spacing:0px;fill:#000000;fill-opacity:1;stroke:none;stroke-width:0.26458332"
       id="text12">
      <path
         d="m 43.618452,149.6422 c 0,-1.04775 -0.85725,-1.905 -1.905,-1.905 h -2.010833 c -1.04775,0 -1.905,0.85725 -1.905,1.905 v 5.23875 h 1.397 v -5.207 c 0,-0.29633 0.243416,-0.52917 0.529166,-0.52917 h 1.957917 c 0.296333,0 0.529167,0.23284 0.529167,0.52917 v 1.651 h -2.06375 l -0.423334,1.40758 h 2.487084 v 2.14842 h 1.407583 z"
         style="font-style:normal;font-variant:normal;font-weight:normal;font-stretch:normal;font-family:DAGGERSQUARE;-inkscape-font-specification:DAGGERSQUARE;stroke-width:0.26458332"
         id="path3772" />
      <path
         d="m 48.20102,147.7372 h -3.577167 v 7.14375 h 3.577167 c 1.04775,0 1.905,-0.85725 1.905,-1.905 v -3.33375 c 0,-1.04775 -0.85725,-1.905 -1.905,-1.905 z m 0.497416,5.21758 c 0,0.28575 -0.232833,0.52917 -0.529166,0.52917 h -2.836333 l 0.687916,-0.6985 v -3.64067 h 2.148417 c 0.296333,0 0.529166,0.23284 0.529166,0.52917 z"
         style="font-style:normal;font-variant:normal;font-weight:normal;font-stretch:normal;font-family:DAGGERSQUARE;-inkscape-font-specification:DAGGERSQUARE;stroke-width:0.26458332"
         id="path3774" />
      <path
         d="m 56.254925,147.7372 -1.87325,3.07975 -1.87325,-3.07975 h -1.397 v 7.14375 h 1.397 v -4.445 l 1.3335,2.19075 h 1.0795 l 1.3335,-2.19075 v 4.445 h 1.397 v -7.14375 z"
         style="font-style:normal;font-variant:normal;font-weight:normal;font-stretch:normal;font-family:DAGGERSQUARE;-inkscape-font-specification:DAGGERSQUARE;stroke-width:0.26458332"
         id="path3776" />
      <path
         d="m 64.700418,154.88095 -2.857499,-4.27567 h 0.931333 l 1.926166,-2.86808 h -1.68275 l -1.555749,2.30717 -1.545167,-2.30717 h -1.68275 l 2.391833,3.57717 -2.391833,3.56658 h 1.68275 l 1.545167,-2.30717 1.555749,2.30717 z"
         style="font-style:normal;font-variant:normal;font-weight:normal;font-stretch:normal;font-family:DAGGERSQUARE;-inkscape-font-specification:DAGGERSQUARE;stroke-width:0.26458332"
         id="path3778" />
    </g>
  </g>
</svg>
