<?xml version="1.0" encoding="UTF-8" standalone="no"?>
<!-- Created with Inkscape (http://www.inkscape.org/) -->

<svg
   xmlns:dc="http://purl.org/dc/elements/1.1/"
   xmlns:cc="http://creativecommons.org/ns#"
   xmlns:rdf="http://www.w3.org/1999/02/22-rdf-syntax-ns#"
   xmlns:svg="http://www.w3.org/2000/svg"
   xmlns="http://www.w3.org/2000/svg"
   xmlns:sodipodi="http://sodipodi.sourceforge.net/DTD/sodipodi-0.dtd"
   xmlns:inkscape="http://www.inkscape.org/namespaces/inkscape"
   width="72.749725mm"
   height="7.1437497mm"
   viewBox="0 0 72.749725 7.1437497"
   version="1.1"
   id="svg8"
   inkscape:version="0.92.5 (2060ec1f9f, 2020-04-08)"
   sodipodi:docname="logo.svg"
   fill="currentColor">
  <defs
     id="defs2" />
  <sodipodi:namedview
     id="base"
     pagecolor="#ffffff"
     bordercolor="#666666"
     borderopacity="1.0"
     inkscape:pageopacity="0.0"
     inkscape:pageshadow="2"
     inkscape:zoom="2.8"
     inkscape:cx="141.50529"
     inkscape:cy="23.425097"
     inkscape:document-units="mm"
     inkscape:current-layer="layer1"
     showgrid="false"
     inkscape:window-width="1920"
     inkscape:window-height="1016"
     inkscape:window-x="0"
     inkscape:window-y="27"
     inkscape:window-maximized="1"
     fit-margin-top="0"
     fit-margin-left="0"
     fit-margin-right="0"
     fit-margin-bottom="0" />
  <metadata
     id="metadata5">
    <rdf:RDF>
      <cc:Work
         rdf:about="">
        <dc:format>image/svg+xml</dc:format>
        <dc:type
           rdf:resource="http://purl.org/dc/dcmitype/StillImage" />
        <dc:title />
      </cc:Work>
    </rdf:RDF>
  </metadata>
  <g
     inkscape:label="Layer 1"
     inkscape:groupmode="layer"
     id="layer1"
     transform="translate(-57.059223,-78.219707)">
    <g
       aria-label="ADMINISTRATIX"
       style="font-style:normal;font-variant:normal;font-weight:normal;font-stretch:normal;font-size:10.58333302px;line-height:1.25;font-family:DAGGERSQUARE;-inkscape-font-specification:DAGGERSQUARE;letter-spacing:0px;word-spacing:0px;fill:#000000;fill-opacity:1;stroke:none;stroke-width:0.26458332"
       id="text12">
      <path
         d="m 62.880056,80.124707 c 0,-1.04775 -0.85725,-1.905 -1.905,-1.905 h -2.010833 c -1.04775,0 -1.905,0.85725 -1.905,1.905 v 5.23875 h 1.397 v -5.207 c 0,-0.296333 0.243417,-0.529167 0.529167,-0.529167 h 1.957916 c 0.296334,0 0.529167,0.232834 0.529167,0.529167 v 1.651 h -2.06375 L 58.98539,83.21504 h 2.487083 v 2.148417 h 1.407583 z"
         style="font-style:normal;font-variant:normal;font-weight:normal;font-stretch:normal;font-family:DAGGERSQUARE;-inkscape-font-specification:DAGGERSQUARE;stroke-width:0.26458332"
         id="path43" />
      <path
         d="m 67.462624,78.219707 h -3.577166 v 7.14375 h 3.577166 c 1.04775,0 1.905,-0.85725 1.905,-1.905 v -3.33375 c 0,-1.04775 -0.85725,-1.905 -1.905,-1.905 z m 0.497417,5.217583 c 0,0.28575 -0.232834,0.529167 -0.529167,0.529167 h -2.836333 l 0.687916,-0.6985 V 79.62729 h 2.148417 c 0.296333,0 0.529167,0.232834 0.529167,0.529167 z"
         style="font-style:normal;font-variant:normal;font-weight:normal;font-stretch:normal;font-family:DAGGERSQUARE;-inkscape-font-specification:DAGGERSQUARE;stroke-width:0.26458332"
         id="path45" />
      <path
         d="m 75.51653,78.219707 -1.87325,3.07975 -1.87325,-3.07975 h -1.397 v 7.14375 h 1.397 v -4.445 l 1.3335,2.19075 h 1.0795 l 1.3335,-2.19075 v 4.445 h 1.397 v -7.14375 z"
         style="font-style:normal;font-variant:normal;font-weight:normal;font-stretch:normal;font-family:DAGGERSQUARE;-inkscape-font-specification:DAGGERSQUARE;stroke-width:0.26458332"
         id="path47" />
      <path
         d="m 79.31594,85.363457 v -7.14375 h -1.397 v 7.14375 z"
         style="font-style:normal;font-variant:normal;font-weight:normal;font-stretch:normal;font-family:DAGGERSQUARE;-inkscape-font-specification:DAGGERSQUARE;stroke-width:0.26458332"
         id="path49" />
      <path
         d="m 85.824681,84.971873 v -6.752166 h -1.407583 v 4.445 l -2.69875,-4.445 h -1.397 v 7.14375 h 1.397 v -4.445 l 2.69875,4.445 h 1.407583 z"
         style="font-style:normal;font-variant:normal;font-weight:normal;font-stretch:normal;font-family:DAGGERSQUARE;-inkscape-font-specification:DAGGERSQUARE;stroke-width:0.26458332"
         id="path51" />
      <path
         d="m 88.227095,85.363457 v -7.14375 h -1.397 v 7.14375 z"
         style="font-style:normal;font-variant:normal;font-weight:normal;font-stretch:normal;font-family:DAGGERSQUARE;-inkscape-font-specification:DAGGERSQUARE;stroke-width:0.26458332"
         id="path53" />
      <path
         d="m 95.053339,82.99279 c 0,-1.04775 -0.85725,-1.905 -1.905,-1.905 h -1.989667 c -0.28575,0 -0.529166,-0.232833 -0.529166,-0.529166 v -0.402167 c 0,-0.296333 0.243416,-0.529167 0.529166,-0.529167 h 2.942167 l 0.423333,-1.407583 h -3.386666 c -1.04775,0 -1.905,0.85725 -1.905,1.905 v 0.465667 c 0,1.04775 0.85725,1.904999 1.905,1.904999 h 1.979083 c 0.296333,0 0.529167,0.232834 0.529167,0.529167 v 0.41275 c 0,0.28575 -0.232834,0.529167 -0.529167,0.529167 h -3.46075 l -0.423333,1.397 h 3.915833 c 1.04775,0 1.905,-0.85725 1.905,-1.905 z"
         style="font-style:normal;font-variant:normal;font-weight:normal;font-stretch:normal;font-family:DAGGERSQUARE;-inkscape-font-specification:DAGGERSQUARE;stroke-width:0.26458332"
         id="path55" />
      <path
         d="m 100.97999,78.219707 h -5.503331 v 1.407583 h 2.751667 l -0.6985,0.6985 v 5.037667 h 1.397 V 79.62729 h 2.053164 z"
         style="font-style:normal;font-variant:normal;font-weight:normal;font-stretch:normal;font-family:DAGGERSQUARE;-inkscape-font-specification:DAGGERSQUARE;stroke-width:0.26458332"
         id="path57" />
      <path
         d="m 107.54165,81.31004 v 0.03175 c 0,-0.01058 0,-0.02117 0,-0.03175 z m 0,-1.217083 v 0.03175 c 0,-0.01058 0,-0.02117 0,-0.03175 z m 0.22225,5.2705 -1.34408,-2.31775 c 0.65617,-0.296334 1.11125,-0.9525 1.12183,-1.703917 0,-0.01058 0,-0.02117 0,-0.03175 v -1.185333 c 0,-0.01058 0,-0.02117 0,-0.03175 -0.0212,-1.037167 -0.86783,-1.87325 -1.905,-1.87325 h -3.91583 v 7.14375 h 1.397 V 79.62729 h 2.48708 c 0.29634,0 0.52917,0.232834 0.52917,0.529167 v 1.121833 c 0,0.296334 -0.23283,0.529167 -0.52917,0.529167 h -1.51341 l -0.42334,1.407583 h 1.23825 l 1.23825,2.148417 z"
         style="font-style:normal;font-variant:normal;font-weight:normal;font-stretch:normal;font-family:DAGGERSQUARE;-inkscape-font-specification:DAGGERSQUARE;stroke-width:0.26458332"
         id="path59" />
      <path
         d="m 114.43139,80.124707 c 0,-1.04775 -0.85725,-1.905 -1.905,-1.905 h -2.01083 c -1.04775,0 -1.905,0.85725 -1.905,1.905 v 5.23875 h 1.397 v -5.207 c 0,-0.296333 0.24342,-0.529167 0.52917,-0.529167 h 1.95791 c 0.29634,0 0.52917,0.232834 0.52917,0.529167 v 1.651 h -2.06375 l -0.42333,1.407583 h 2.48708 v 2.148417 h 1.40758 z"
         style="font-style:normal;font-variant:normal;font-weight:normal;font-stretch:normal;font-family:DAGGERSQUARE;-inkscape-font-specification:DAGGERSQUARE;stroke-width:0.26458332"
         id="path61" />
      <path
         d="m 120.62263,78.219707 h -5.50334 v 1.407583 h 2.75167 l -0.6985,0.6985 v 5.037667 h 1.397 V 79.62729 h 2.05317 z"
         style="font-style:normal;font-variant:normal;font-weight:normal;font-stretch:normal;font-family:DAGGERSQUARE;-inkscape-font-specification:DAGGERSQUARE;stroke-width:0.26458332"
         id="path63" />
      <path
         d="m 122.76045,85.363457 v -7.14375 h -1.397 v 7.14375 z"
         style="font-style:normal;font-variant:normal;font-weight:normal;font-stretch:normal;font-family:DAGGERSQUARE;-inkscape-font-specification:DAGGERSQUARE;stroke-width:0.26458332"
         id="path65" />
      <path
         d="m 129.80895,85.363457 -2.8575,-4.275667 h 0.93133 l 1.92617,-2.868083 h -1.68275 l -1.55575,2.307167 -1.54517,-2.307167 h -1.68275 l 2.39184,3.577166 -2.39184,3.566584 h 1.68275 l 1.54517,-2.307167 1.55575,2.307167 z"
         style="font-style:normal;font-variant:normal;font-weight:normal;font-stretch:normal;font-family:DAGGERSQUARE;-inkscape-font-specification:DAGGERSQUARE;stroke-width:0.26458332"
         id="path67" />
    </g>
  </g>
</svg>
